<svg width="201" height="201" viewBox="0 0 201 201" fill="none" xmlns="http://www.w3.org/2000/svg">
<g filter="url(#filter0_i_3_13)">
<path d="M18.1238 138.598C20.536 138.598 22.4916 140.553 22.5203 142.964C22.6567 154.486 23.1374 159.557 24.7117 164.757C26.7973 170.165 31.0625 174.435 36.4617 176.529C41.6753 178.114 46.7382 178.595 58.2928 178.732C60.7048 178.761 62.66 180.717 62.66 183.129V196.295C62.6599 198.722 60.6835 200.69 58.2567 200.665C46.7194 200.544 39.0796 200.036 31.3934 197.889L29.3729 197.286C18.3063 193.259 9.44074 184.835 4.83576 174.072L3.9715 171.889C1.31544 163.486 0.728348 155.548 0.597475 143C0.572274 140.573 2.54063 138.598 4.96759 138.598H18.1238ZM196.222 138.598C198.649 138.598 200.618 140.573 200.593 143C200.461 155.548 199.871 163.486 197.215 171.889L196.349 174.072C191.745 184.835 182.883 193.259 171.817 197.286L169.797 197.889C162.108 200.037 154.467 200.544 142.929 200.665C140.502 200.69 138.526 198.721 138.526 196.295V183.129C138.526 180.717 140.481 178.761 142.892 178.732C154.435 178.595 159.501 178.116 164.711 176.534C170.112 174.443 174.377 170.175 176.466 164.77C178.044 159.565 178.524 154.496 178.661 142.964C178.69 140.552 180.645 138.598 183.057 138.598H196.222ZM90.034 147.791C92.8371 147.791 94.9073 148.364 96.244 149.511C97.5924 150.647 98.2674 152.291 98.2674 154.444V161.825C98.2674 162.535 98.3613 163.049 98.5506 163.369C98.7517 163.688 99.0711 163.931 99.5086 164.096L98.3553 167.787C97.2437 167.68 96.3037 167.438 95.535 167.059C94.778 166.669 94.1806 166.083 93.743 165.302C93.0214 166.166 92.0981 166.811 90.9744 167.237C89.851 167.651 88.7038 167.857 87.533 167.857C85.5932 167.857 84.0428 167.308 82.8836 166.208C81.7363 165.096 81.1629 163.67 81.1629 161.931C81.1629 159.885 81.9616 158.306 83.5584 157.194C85.167 156.082 87.4262 155.526 90.3358 155.526H92.8729V154.817C92.8729 153.835 92.5536 153.108 91.9149 152.634C91.288 152.161 90.3655 151.924 89.1473 151.924C88.544 151.924 87.7693 152.014 86.8231 152.191C85.8768 152.357 84.9305 152.599 83.9842 152.919L82.6893 149.192C83.9075 148.731 85.1733 148.382 86.4861 148.145C87.8106 147.909 88.9933 147.791 90.034 147.791ZM115.197 163.421H119.988V167.254H104.25V163.421H109.591V152.244H104.428V148.412H115.197V163.421ZM91.4891 158.72C89.9279 158.72 88.781 158.963 88.0477 159.448C87.3144 159.921 86.9472 160.618 86.9471 161.541C86.9471 162.262 87.1657 162.831 87.6033 163.245C88.0528 163.647 88.6741 163.847 89.4666 163.847C90.0699 163.847 90.7027 163.67 91.3651 163.315C92.0273 162.948 92.5299 162.434 92.8729 161.772V158.72H91.4891ZM111.808 138.546C112.778 138.546 113.571 138.849 114.186 139.452C114.801 140.055 115.108 140.806 115.108 141.705C115.108 142.604 114.801 143.361 114.186 143.976C113.571 144.579 112.778 144.88 111.808 144.88C110.827 144.88 110.022 144.579 109.395 143.976C108.78 143.361 108.472 142.604 108.472 141.705C108.473 140.806 108.78 140.055 109.395 139.452C110.022 138.849 110.827 138.547 111.808 138.546ZM51.7342 70.9127C59.82 70.9128 65.7359 72.6623 69.4813 76.1627C73.2617 79.6632 75.1522 84.5295 75.1522 90.7604C75.1521 97.0958 73.2791 101.996 69.534 105.462C65.7886 108.927 59.855 110.66 51.7342 110.66C43.7182 110.66 37.8193 108.927 34.0389 105.462C30.2587 101.961 28.3681 97.0608 28.368 90.7604C28.368 84.5295 30.2417 79.6632 33.9871 76.1627C37.7676 72.6625 43.6835 70.9127 51.7342 70.9127ZM102.439 70.9127C113.001 70.9127 120.229 74.3755 124.121 81.3014C124.416 81.8264 124.146 82.4789 123.581 82.6871C120.904 83.6739 117.863 85.0242 114.459 86.7379C113.967 86.9854 113.371 86.7904 113.067 86.3316C112.053 84.8 110.61 83.6332 108.74 82.8316C106.57 81.8866 104.347 81.4137 102.072 81.4137C98.7117 81.4137 96.2085 82.3062 94.5633 84.0914C92.9182 85.8416 92.0956 88.012 92.0955 90.6022C92.0955 93.4025 92.9713 95.6958 94.7215 97.4811C96.5067 99.2311 99.2199 100.106 102.86 100.106C105.765 100.106 108.076 99.6332 109.791 98.6881C111.21 97.8773 112.317 96.6833 113.113 95.1061C113.385 94.5685 114.04 94.3199 114.575 94.5973C117.074 95.894 120.113 97.3197 123.692 98.8746C124.193 99.0925 124.432 99.6737 124.198 100.168C122.417 103.924 119.627 106.581 115.829 108.139C111.733 109.819 107.27 110.66 102.439 110.66C94.5286 110.66 88.7003 108.98 84.9549 105.62C81.2094 102.259 79.3367 97.4629 79.3367 91.232C79.3368 84.9664 81.2095 80.0131 84.9549 76.3727C88.7003 72.7323 94.5286 70.9128 102.439 70.9127ZM51.7342 81.6236C47.8839 81.6236 45.1008 82.3764 43.3856 83.8815C41.6703 85.3866 40.8123 87.68 40.8123 90.7604C40.8124 93.8756 41.6704 96.1859 43.3856 97.691C45.1008 99.1961 47.8839 99.9488 51.7342 99.9488C55.6192 99.9488 58.4194 99.2137 60.1346 97.7438C61.8497 96.2386 62.7078 93.9106 62.7078 90.7604C62.7078 87.68 61.8498 85.3866 60.1346 83.8815C58.4194 82.3764 55.6193 81.6237 51.7342 81.6236ZM58.2576 0.668561C60.6844 0.64323 62.6598 2.61176 62.66 5.03868V18.1998C62.6598 20.612 60.7048 22.5678 58.2928 22.5963C46.7691 22.7318 41.6995 23.2081 36.4998 24.7828C31.0813 26.8733 26.8022 31.1532 24.7117 36.5719C23.1366 41.7726 22.6565 46.8427 22.5203 58.3688C22.4917 60.7807 20.536 62.7358 18.1238 62.7359H4.96271C2.53583 62.7357 0.568028 60.7594 0.593569 58.3326C0.715014 46.7936 1.22527 39.153 3.37189 31.4654L3.9715 29.4449C7.99984 18.3775 16.4256 9.5126 27.1902 4.90782L29.3729 4.04258C37.7734 1.38717 45.7106 0.799548 58.2576 0.668561ZM142.929 0.668561C155.476 0.799432 163.415 1.38641 171.817 4.04258C183.621 8.33963 192.918 17.641 197.215 29.4449C199.87 37.8462 200.458 45.7853 200.589 58.3336C200.614 60.7605 198.646 62.7359 196.219 62.7359H183.057C180.645 62.7358 178.69 60.7808 178.661 58.3688C178.524 46.833 178.044 41.7646 176.466 36.5592C174.373 31.1474 170.099 26.8715 164.685 24.7828C159.485 23.2082 154.414 22.7319 142.893 22.5963C140.481 22.5679 138.526 20.6121 138.526 18.1998V5.03868C138.526 2.61176 140.502 0.643251 142.929 0.668561Z" fill="url(#paint0_linear_3_13)"/>
</g>
<path d="M171.723 84.104C171.723 87.3015 170.933 90.0028 169.352 92.2079C167.908 94.2712 165.482 95.8036 162.076 96.8051C161.735 96.9052 161.593 97.3148 161.796 97.6055C162.014 97.9154 162.18 98.1743 162.296 98.3824L183.811 129.784C184.039 130.116 183.801 130.567 183.399 130.567H176.85H169.652C169.467 130.567 169.305 130.477 169.213 130.317C167.025 126.471 152.367 103.976 148.708 98.216C148.616 98.0714 148.465 97.9965 148.294 97.9965H140.965C140.689 97.9965 140.465 98.2203 140.465 98.4965V110.286C140.465 110.563 140.241 110.786 139.965 110.786H127.975C127.691 110.786 127.464 110.55 127.476 110.266C127.756 103.331 127.895 96.8343 127.895 90.7746C127.895 84.7149 127.756 78.2179 127.476 71.2836C127.464 70.9996 127.691 70.7628 127.975 70.7628H140.437C140.452 70.7628 140.465 70.7751 140.465 70.7903V70.7903C140.465 70.8056 140.477 70.8179 140.492 70.8179H151.766C159.19 70.8179 164.372 72.0124 167.313 74.4013C170.253 76.7902 171.723 80.0244 171.723 84.104ZM140.965 81.4027C140.689 81.4027 140.465 81.6265 140.465 81.9027V87.1874C140.465 87.4635 140.689 87.6874 140.965 87.6874H147.907C151.031 87.6874 153.383 87.5955 154.964 87.4117C156.581 87.1912 157.702 86.8604 158.327 86.4194C158.951 85.9784 159.264 85.3352 159.264 84.4899C159.264 83.6813 158.97 83.0565 158.382 82.6155C157.794 82.1745 156.691 81.8621 155.074 81.6783C153.457 81.4945 151.068 81.4027 147.907 81.4027H140.965Z" fill="#FD7EFF"/>
<path d="M159.188 130.567L146.353 130.567C145.933 130.567 145.7 130.08 145.964 129.753L172.045 97.4098C172.14 97.2921 172.283 97.2237 172.434 97.2237L184.359 97.2236C184.775 97.2236 185.009 97.7023 184.754 98.0307L159.582 130.374C159.488 130.496 159.342 130.567 159.188 130.567Z" fill="#FD7EFF"/>
<defs>
<filter id="filter0_i_3_13" x="0.593323" y="0.66832" width="200" height="203.997" filterUnits="userSpaceOnUse" color-interpolation-filters="sRGB">
<feFlood flood-opacity="0" result="BackgroundImageFix"/>
<feBlend mode="normal" in="SourceGraphic" in2="BackgroundImageFix" result="shape"/>
<feColorMatrix in="SourceAlpha" type="matrix" values="0 0 0 0 0 0 0 0 0 0 0 0 0 0 0 0 0 0 127 0" result="hardAlpha"/>
<feOffset dy="4"/>
<feGaussianBlur stdDeviation="2"/>
<feComposite in2="hardAlpha" operator="arithmetic" k2="-1" k3="1"/>
<feColorMatrix type="matrix" values="0 0 0 0 0.186853 0 0 0 0 0.557299 0 0 0 0 0.903846 0 0 0 0.25 0"/>
<feBlend mode="normal" in2="shape" result="effect1_innerShadow_3_13"/>
</filter>
<linearGradient id="paint0_linear_3_13" x1="100.593" y1="0.66832" x2="100.593" y2="200.665" gradientUnits="userSpaceOnUse">
<stop stop-color="#8F59AB"/>
<stop offset="1" stop-color="#3A2445"/>
</linearGradient>
</defs>
</svg>
