<svg width="192" height="192" viewBox="0 0 192 192" fill="none" xmlns="http://www.w3.org/2000/svg">
<g filter="url(#filter0_ii_4302_5564)">
<path d="M66.9392 0H125.061C144.336 0 153.971 0 164.347 3.28C175.675 7.4032 184.597 16.3248 188.72 27.6528C192 38.0272 192 47.6656 192 66.9392V125.061C192 144.336 192 153.971 188.72 164.347C184.597 175.675 175.675 184.597 164.347 188.718C153.971 192 144.336 192 125.061 192H66.9392C47.664 192 38.0272 192 27.6528 188.718C16.3248 184.597 7.4032 175.675 3.28 164.347C0 153.971 0 144.336 0 125.061V66.9392C0 47.6656 0 38.0272 3.28 27.6528C7.4032 16.3248 16.3248 7.4032 27.6528 3.28C38.0272 0 47.664 0 66.9392 0Z" fill="url(#paint0_linear_4302_5564)"/>
</g>
<g filter="url(#filter1_d_4302_5564)">
<path d="M144.56 60.7748C146.101 59.234 148.735 60.3253 148.735 62.5043V101.882C148.735 103.233 147.64 104.328 146.289 104.328H129.857L102.96 131.225C101.419 132.766 98.7845 131.675 98.7845 129.496V104.328H98.4108L71.5139 131.225C69.9731 132.766 67.3386 131.675 67.3386 129.496V104.328H45.7156C43.5366 104.328 42.4454 101.694 43.9862 100.153L83.3642 60.7748C84.905 59.234 87.5394 60.3252 87.5394 62.5042L87.5393 87.107L113.872 60.7748C115.412 59.234 118.047 60.3252 118.047 62.5042V87.2877L144.56 60.7748Z" fill="white"/>
</g>
<defs>
<filter id="filter0_ii_4302_5564" x="-3" y="-3" width="195" height="197" filterUnits="userSpaceOnUse" color-interpolation-filters="sRGB">
<feFlood flood-opacity="0" result="BackgroundImageFix"/>
<feBlend mode="normal" in="SourceGraphic" in2="BackgroundImageFix" result="shape"/>
<feColorMatrix in="SourceAlpha" type="matrix" values="0 0 0 0 0 0 0 0 0 0 0 0 0 0 0 0 0 0 127 0" result="hardAlpha"/>
<feOffset dx="-3" dy="-3"/>
<feGaussianBlur stdDeviation="2"/>
<feComposite in2="hardAlpha" operator="arithmetic" k2="-1" k3="1"/>
<feColorMatrix type="matrix" values="0 0 0 0 0.34527 0 0 0 0 0.0967317 0 0 0 0 0.649038 0 0 0 1 0"/>
<feBlend mode="normal" in2="shape" result="effect1_innerShadow_4302_5564"/>
<feColorMatrix in="SourceAlpha" type="matrix" values="0 0 0 0 0 0 0 0 0 0 0 0 0 0 0 0 0 0 127 0" result="hardAlpha"/>
<feOffset dy="2"/>
<feGaussianBlur stdDeviation="1"/>
<feComposite in2="hardAlpha" operator="arithmetic" k2="-1" k3="1"/>
<feColorMatrix type="matrix" values="0 0 0 0 0.941506 0 0 0 0 0.298077 0 0 0 0 1 0 0 0 1 0"/>
<feBlend mode="multiply" in2="effect1_innerShadow_4302_5564" result="effect2_innerShadow_4302_5564"/>
</filter>
<filter id="filter1_d_4302_5564" x="9.26489" y="26.0535" width="173.47" height="139.893" filterUnits="userSpaceOnUse" color-interpolation-filters="sRGB">
<feFlood flood-opacity="0" result="BackgroundImageFix"/>
<feColorMatrix in="SourceAlpha" type="matrix" values="0 0 0 0 0 0 0 0 0 0 0 0 0 0 0 0 0 0 127 0" result="hardAlpha"/>
<feOffset/>
<feGaussianBlur stdDeviation="17"/>
<feComposite in2="hardAlpha" operator="out"/>
<feColorMatrix type="matrix" values="0 0 0 0 0 0 0 0 0 0 0 0 0 0 0 0 0 0 0.25 0"/>
<feBlend mode="normal" in2="BackgroundImageFix" result="effect1_dropShadow_4302_5564"/>
<feBlend mode="normal" in="SourceGraphic" in2="effect1_dropShadow_4302_5564" result="shape"/>
</filter>
<linearGradient id="paint0_linear_4302_5564" x1="96" y1="0" x2="96" y2="192" gradientUnits="userSpaceOnUse">
<stop stop-color="#BD4CFF"/>
<stop offset="0.399038" stop-color="#A406FF"/>
<stop offset="1" stop-color="#340061"/>
</linearGradient>
</defs>
</svg>
